<svg width="41" height="41" viewBox="0 0 41 41" fill="none" xmlns="http://www.w3.org/2000/svg">
<path d="M10.2501 8.19995C8.61902 8.19995 7.05474 8.8479 5.90139 10.0012C4.74804 11.1546 4.1001 12.7189 4.1001 14.35V26.65C4.1001 28.281 4.74804 29.8453 5.90139 30.9987C7.05474 32.152 8.61902 32.7999 10.2501 32.7999H30.7501C32.3812 32.7999 33.9455 32.152 35.0988 30.9987C36.2522 29.8453 36.9001 28.281 36.9001 26.65V14.35C36.9001 12.7189 36.2522 11.1546 35.0988 10.0012C33.9455 8.8479 32.3812 8.19995 30.7501 8.19995H10.2501ZM31.7751 12.3C32.0469 12.3 32.3077 12.4079 32.4999 12.6002C32.6921 12.7924 32.8001 13.0531 32.8001 13.325V15.375C32.8001 15.6468 32.6921 15.9075 32.4999 16.0997C32.3077 16.292 32.0469 16.4 31.7751 16.4C31.5033 16.4 31.2425 16.292 31.0503 16.0997C30.8581 15.9075 30.7501 15.6468 30.7501 15.375V13.325C30.7501 13.0531 30.8581 12.7924 31.0503 12.6002C31.2425 12.4079 31.5033 12.3 31.7751 12.3ZM30.7501 25.625C30.7501 25.3531 30.8581 25.0924 31.0503 24.9002C31.2425 24.7079 31.5033 24.6 31.7751 24.6C32.0469 24.6 32.3077 24.7079 32.4999 24.9002C32.6921 25.0924 32.8001 25.3531 32.8001 25.625V27.675C32.8001 27.9468 32.6921 28.2075 32.4999 28.3997C32.3077 28.592 32.0469 28.7 31.7751 28.7C31.5033 28.7 31.2425 28.592 31.0503 28.3997C30.8581 28.2075 30.7501 27.9468 30.7501 27.675V25.625ZM31.7751 18.45C32.0469 18.45 32.3077 18.5579 32.4999 18.7502C32.6921 18.9424 32.8001 19.2031 32.8001 19.475V21.525C32.8001 21.7968 32.6921 22.0575 32.4999 22.2497C32.3077 22.442 32.0469 22.55 31.7751 22.55C31.5033 22.55 31.2425 22.442 31.0503 22.2497C30.8581 22.0575 30.7501 21.7968 30.7501 21.525V19.475C30.7501 19.2031 30.8581 18.9424 31.0503 18.7502C31.2425 18.5579 31.5033 18.45 31.7751 18.45ZM8.2001 13.325C8.2001 13.0531 8.30809 12.7924 8.50031 12.6002C8.69254 12.4079 8.95325 12.3 9.2251 12.3C9.49694 12.3 9.75766 12.4079 9.94988 12.6002C10.1421 12.7924 10.2501 13.0531 10.2501 13.325V15.375C10.2501 15.6468 10.1421 15.9075 9.94988 16.0997C9.75766 16.292 9.49694 16.4 9.2251 16.4C8.95325 16.4 8.69254 16.292 8.50031 16.0997C8.30809 15.9075 8.2001 15.6468 8.2001 15.375V13.325ZM9.2251 24.6C9.49694 24.6 9.75766 24.7079 9.94988 24.9002C10.1421 25.0924 10.2501 25.3531 10.2501 25.625V27.675C10.2501 27.9468 10.1421 28.2075 9.94988 28.3997C9.75766 28.592 9.49694 28.7 9.2251 28.7C8.95325 28.7 8.69254 28.592 8.50031 28.3997C8.30809 28.2075 8.2001 27.9468 8.2001 27.675V25.625C8.2001 25.3531 8.30809 25.0924 8.50031 24.9002C8.69254 24.7079 8.95325 24.6 9.2251 24.6ZM8.2001 19.475C8.2001 19.2031 8.30809 18.9424 8.50031 18.7502C8.69254 18.5579 8.95325 18.45 9.2251 18.45C9.49694 18.45 9.75766 18.5579 9.94988 18.7502C10.1421 18.9424 10.2501 19.2031 10.2501 19.475V21.525C10.2501 21.7968 10.1421 22.0575 9.94988 22.2497C9.75766 22.442 9.49694 22.55 9.2251 22.55C8.95325 22.55 8.69254 22.442 8.50031 22.2497C8.30809 22.0575 8.2001 21.7968 8.2001 21.525V19.475ZM16.4001 16.6583C16.4001 15.6681 17.3431 15.0531 18.0975 15.5513L24.1245 19.5549C24.76 19.9772 24.76 21.0227 24.1245 21.445L18.0975 25.4487C17.3451 25.9468 16.4001 25.3318 16.4001 24.3417V16.6583Z" fill="#9747FF"/>
</svg>
