<svg width="34" height="34" viewBox="0 0 34 34" fill="none" xmlns="http://www.w3.org/2000/svg">
<path d="M9.5625 4.25C8.15354 4.25 6.80228 4.80971 5.806 5.806C4.80971 6.80228 4.25 8.15354 4.25 9.5625V24.4375C4.25 25.8465 4.80971 27.1977 5.806 28.194C6.80228 29.1903 8.15354 29.75 9.5625 29.75H14.025C13.347 28.4251 12.9301 26.9823 12.7968 25.5H11.1562C9.69 25.5 8.5 24.31 8.5 22.8438V20.1875C8.5 19.9057 8.61194 19.6355 8.8112 19.4362C9.01046 19.2369 9.28071 19.125 9.5625 19.125C9.84429 19.125 10.1145 19.2369 10.3138 19.4362C10.5131 19.6355 10.625 19.9057 10.625 20.1875V22.8438C10.625 23.137 10.863 23.375 11.1562 23.375H12.7968C13.0457 20.6534 14.2401 18.1051 16.1726 16.1726C18.1051 14.2401 20.6534 13.0457 23.375 12.7968V11.1562C23.375 11.0154 23.319 10.8802 23.2194 10.7806C23.1198 10.681 22.9846 10.625 22.8438 10.625H20.1875C19.9057 10.625 19.6355 10.5131 19.4362 10.3138C19.2369 10.1145 19.125 9.84429 19.125 9.5625C19.125 9.28071 19.2369 9.01046 19.4362 8.8112C19.6355 8.61194 19.9057 8.5 20.1875 8.5H22.8438C24.31 8.5 25.5 9.69 25.5 11.1562V12.7968C27.0194 12.9349 28.4538 13.362 29.75 14.025V9.5625C29.75 8.15354 29.1903 6.80228 28.194 5.806C27.1977 4.80971 25.8465 4.25 24.4375 4.25H9.5625ZM11.1562 10.625C11.0154 10.625 10.8802 10.681 10.7806 10.7806C10.681 10.8802 10.625 11.0154 10.625 11.1562V13.8125C10.625 14.0943 10.5131 14.3645 10.3138 14.5638C10.1145 14.7631 9.84429 14.875 9.5625 14.875C9.28071 14.875 9.01046 14.7631 8.8112 14.5638C8.61194 14.3645 8.5 14.0943 8.5 13.8125V11.1562C8.5 9.69 9.69 8.5 11.1562 8.5H13.8125C14.0943 8.5 14.3645 8.61194 14.5638 8.8112C14.7631 9.01046 14.875 9.28071 14.875 9.5625C14.875 9.84429 14.7631 10.1145 14.5638 10.3138C14.3645 10.5131 14.0943 10.625 13.8125 10.625H11.1562ZM24.4375 17C26.41 17 28.3018 17.7836 29.6966 19.1784C31.0914 20.5732 31.875 22.465 31.875 24.4375C31.875 26.41 31.0914 28.3018 29.6966 29.6966C28.3018 31.0914 26.41 31.875 24.4375 31.875C22.465 31.875 20.5732 31.0914 19.1784 29.6966C17.7836 28.3018 17 26.41 17 24.4375C17 22.465 17.7836 20.5732 19.1784 19.1784C20.5732 17.7836 22.465 17 24.4375 17ZM24.4375 34C26.9736 34 29.4059 32.9925 31.1992 31.1992C32.9925 29.4059 34 26.9736 34 24.4375C34 21.9014 32.9925 19.4691 31.1992 17.6758C29.4059 15.8825 26.9736 14.875 24.4375 14.875C21.9014 14.875 19.4691 15.8825 17.6758 17.6758C15.8825 19.4691 14.875 21.9014 14.875 24.4375C14.875 26.9736 15.8825 29.4059 17.6758 31.1992C19.4691 32.9925 21.9014 34 24.4375 34ZM29.75 24.4375C29.75 25.8465 29.1903 27.1977 28.194 28.194C27.1977 29.1903 25.8465 29.75 24.4375 29.75C23.0285 29.75 21.6773 29.1903 20.681 28.194C19.6847 27.1977 19.125 25.8465 19.125 24.4375C19.125 23.0285 19.6847 21.6773 20.681 20.681C21.6773 19.6847 23.0285 19.125 24.4375 19.125C25.8465 19.125 27.1977 19.6847 28.194 20.681C29.1903 21.6773 29.75 23.0285 29.75 24.4375Z" fill="#9747FF"/>
</svg>
