<svg width="30" height="29" viewBox="0 0 30 29" fill="none" xmlns="http://www.w3.org/2000/svg">
<path d="M29.2108 4.69727L15.3648 0.0595073C15.1279 -0.0198358 14.8718 -0.0198358 14.635 0.0595073L0.788936 4.69727C0.579508 4.76825 0.394775 4.89818 0.256705 5.07161C0.118635 5.24503 0.0330391 5.45465 0.0100966 5.67555C0.00332712 5.71577 -5.01848e-05 5.7565 5.63464e-07 5.79729V17.3917C5.63464e-07 17.6992 0.121565 17.9941 0.337951 18.2115C0.554338 18.429 0.84782 18.5511 1.15384 18.5511C1.45985 18.5511 1.75334 18.429 1.96972 18.2115C2.18611 17.9941 2.30767 17.6992 2.30767 17.3917V7.40601L7.15234 9.02778C5.86518 11.1174 5.45587 13.6349 6.01428 16.0275C6.57269 18.4201 8.05319 20.4922 10.1307 21.7889C7.53455 22.8121 5.29034 24.6628 3.64901 27.1933C3.56365 27.3208 3.50435 27.4641 3.47458 27.6148C3.4448 27.7655 3.44514 27.9207 3.47556 28.0712C3.50598 28.2218 3.56589 28.3648 3.6518 28.4919C3.73771 28.6191 3.8479 28.7277 3.97598 28.8117C4.10406 28.8956 4.24746 28.9532 4.39786 28.9809C4.54826 29.0087 4.70264 29.0061 4.85205 28.9734C5.00145 28.9407 5.1429 28.8784 5.26816 28.7903C5.39341 28.7022 5.49999 28.5899 5.58168 28.46C7.75522 25.1092 11.1879 23.1889 14.9999 23.1889C18.8119 23.1889 22.2445 25.1092 24.4181 28.46C24.5873 28.7128 24.8487 28.8884 25.1458 28.949C25.4429 29.0096 25.7518 28.9503 26.0057 28.7839C26.2596 28.6175 26.4382 28.3573 26.5027 28.0597C26.5673 27.762 26.5127 27.4508 26.3507 27.1933C24.7094 24.6628 22.4565 22.8121 19.8691 21.7889C21.9446 20.4923 23.4237 18.4215 23.982 16.0306C24.5403 13.6398 24.1323 11.124 22.8474 9.03503L29.2108 6.90456C29.4406 6.82764 29.6405 6.68 29.7821 6.48257C29.9238 6.28514 30 6.04792 30 5.80454C30 5.56115 29.9238 5.32393 29.7821 5.1265C29.6405 4.92907 29.4406 4.78143 29.2108 4.70452V4.69727ZM21.9229 13.9134C21.9232 15.0132 21.664 16.0974 21.1666 17.0771C20.6691 18.0567 19.9476 18.9039 19.0613 19.5491C18.1749 20.1943 17.1489 20.6192 16.0675 20.7888C14.9861 20.9584 13.8801 20.8679 12.8402 20.5249C11.8004 20.1818 10.8563 19.5958 10.0854 18.8151C9.3145 18.0344 8.73882 17.0811 8.40557 16.0335C8.07232 14.9859 7.99099 13.8739 8.16827 12.7886C8.34555 11.7033 8.77637 10.6757 9.4254 9.79011L14.635 11.5293C14.8718 11.6086 15.1279 11.6086 15.3648 11.5293L20.5743 9.79011C21.451 10.9843 21.9236 12.4294 21.9229 13.9134ZM14.9999 9.21329L4.80284 5.79729L14.9999 2.38129L25.1969 5.79729L14.9999 9.21329Z" fill="#9747FF"/>
</svg>
