<svg width="20" height="20" viewBox="0 0 20 20" fill="none" xmlns="http://www.w3.org/2000/svg">
<path d="M17.5 16.25H2.5V9.58333L10 2.5L17.5 9.58333V16.25Z" fill="#E8EAF6"/>
<path d="M16.25 8.75L14.1667 6.66667V3.75H16.25V8.75ZM2.5 16.25H17.5V18.3333H2.5V16.25Z" fill="#C5CAE9"/>
<path d="M10 1.79167L1.66667 9.54167L2.50001 10.4583L10 3.5L17.5 10.4583L18.3333 9.54167L10 1.79167Z" fill="#B71C1C"/>
<path d="M7.5 11.6667H12.5V18.3333H7.5V11.6667Z" fill="#D84315"/>
<path d="M8.75 7.08333H11.25V9.58333H8.75V7.08333Z" fill="#01579B"/>
<path d="M11.4583 14.7917C11.3333 14.7917 11.25 14.875 11.25 15V15.8333C11.25 15.9583 11.3333 16.0417 11.4583 16.0417C11.5833 16.0417 11.6667 15.9583 11.6667 15.8333V15C11.6667 14.875 11.5833 14.7917 11.4583 14.7917Z" fill="#FF8A65"/>
</svg>
