
<svg fill="#aa41a7" height="30px" width="30px" version="1.1" id="Layer_1" xmlns="http://www.w3.org/2000/svg" xmlns:xlink="http://www.w3.org/1999/xlink" viewBox="0 0 511.998 511.998" xml:space="preserve" stroke="#aa41a7">

<g id="SVGRepo_bgCarrier" stroke-width="0"/>

<g id="SVGRepo_tracerCarrier" stroke-linecap="round" stroke-linejoin="round"/>

<g id="SVGRepo_iconCarrier"> <g> <g> <path d="M434.138,112.942C386.43,95.252,323.166,85.51,256,85.51s-130.431,9.742-178.138,27.432 C27.652,131.561,0,157.321,0,185.479v38.969c0,9.133,4.299,17.75,11.795,23.641c8.327,6.544,19.602,8.916,30.164,6.347 l85.183-20.728c1.166-0.284,2.302-0.633,3.412-1.028c-0.585,0.687-1.206,1.347-1.863,1.973l-13.555,12.909 c-8.885,8.461-14.852,19.292-17.259,31.325L77.116,382.697c-0.104,0.515-0.156,1.041-0.156,1.569v17.102 c0,13.851,11.268,25.119,25.119,25.119h307.841c13.851,0,25.119-11.268,25.119-25.119v-17.102c0-0.528-0.052-1.054-0.156-1.572 l-20.757-103.799c-2.405-12.028-8.372-22.858-17.254-31.321l-13.567-12.924c-0.657-0.626-1.279-1.287-1.864-1.974 c1.111,0.397,2.248,0.746,3.415,1.03l85.183,20.729c2.804,0.682,5.657,1.015,8.492,1.015c7.847,0,15.556-2.557,21.672-7.363 c7.495-5.891,11.794-14.507,11.794-23.641v-38.969C512,157.321,484.348,131.561,434.138,112.942z M123.351,218.127l-85.183,20.728 c-5.82,1.417-11.976,0.155-16.466-3.375c-3.656-2.872-5.668-6.791-5.668-11.034v-4.687l120.785-29.835v10.491v0.574 C136.818,209.15,131.28,216.198,123.351,218.127z M419.006,401.368c0,5.01-4.076,9.086-9.086,9.086H102.079 c-5.01,0-9.086-4.076-9.086-9.086v-9.086h326.013V401.368z M385.815,259.183c6.482,6.175,10.835,14.077,12.59,22.855 l18.839,94.211H94.755l18.844-94.222c1.756-8.78,6.111-16.684,12.595-22.858l13.555-12.909 c8.328-7.93,13.104-19.074,13.104-30.574V200.99v-0.574v-32.444c0-4.481,3.26-8.352,7.583-9.008 c63.412-9.598,127.718-9.598,191.131,0c4.323,0.654,7.583,4.527,7.583,9.008v32.444v0.574v14.698 c0,11.497,4.775,22.64,13.099,30.57L385.815,259.183z M495.967,224.446c0,4.244-2.013,8.162-5.668,11.034 c-4.492,3.529-10.647,4.792-16.466,3.375l-85.183-20.728c-7.929-1.929-13.467-8.977-13.467-17.138v-0.573v-10.025l120.785,29.391 V224.446z M495.967,203.282l-120.785-29.391v-5.917c0-12.341-9.121-23.029-21.216-24.86c-65.005-9.839-130.924-9.839-195.93,0 c-12.096,1.831-21.216,12.518-21.216,24.859v5.436L16.033,203.245v-17.766c0-20.661,24.567-41.62,67.403-57.503 c45.968-17.045,107.252-26.432,172.563-26.432s126.595,9.387,172.563,26.432c42.836,15.884,67.403,36.843,67.403,57.503V203.282z"/> </g> </g> <g> <g> <path d="M353.901,308.819l-12.265-6.69c5.07-11.507,7.892-24.219,7.892-37.579c0-51.572-41.956-93.528-93.528-93.528 s-93.528,41.956-93.528,93.528s41.956,93.528,93.528,93.528c32.494,0,61.167-16.661,77.937-41.886l12.287,6.702 c1.22,0.666,2.534,0.98,3.831,0.98c2.839,0,5.589-1.511,7.045-4.179C359.221,315.809,357.789,310.939,353.901,308.819z M327.5,294.419l-16.07-8.765c2.507-6.562,3.893-13.672,3.893-21.103c0-32.711-26.612-59.324-59.324-59.324 s-59.324,26.611-59.324,59.323s26.612,59.324,59.324,59.324c19.555,0,36.924-9.515,47.738-24.154l16.056,8.757 c-13.993,20.259-37.364,33.568-63.794,33.568c-42.731,0-77.495-34.764-77.495-77.495s34.764-77.495,77.495-77.495 s77.495,34.764,77.495,77.495C333.495,275.131,331.357,285.221,327.5,294.419z M299.29,264.55c0,23.871-19.42,43.29-43.29,43.29 s-43.29-19.42-43.29-43.29s19.42-43.29,43.29-43.29S299.29,240.68,299.29,264.55z"/> </g> </g> </g>

</svg>