<svg width="14" height="12" viewBox="0 0 14 12" fill="none" xmlns="http://www.w3.org/2000/svg">
<path d="M0 0.833333C0 0.61232 0.0877975 0.400358 0.244078 0.244078C0.400358 0.0877975 0.61232 0 0.833333 0H12.5C12.721 0 12.933 0.0877975 13.0893 0.244078C13.2455 0.400358 13.3333 0.61232 13.3333 0.833333C13.3333 1.05435 13.2455 1.26631 13.0893 1.42259C12.933 1.57887 12.721 1.66667 12.5 1.66667H0.833333C0.61232 1.66667 0.400358 1.57887 0.244078 1.42259C0.0877975 1.26631 0 1.05435 0 0.833333ZM0 10.8333C0 10.6123 0.0877975 10.4004 0.244078 10.2441C0.400358 10.0878 0.61232 10 0.833333 10H12.5C12.721 10 12.933 10.0878 13.0893 10.2441C13.2455 10.4004 13.3333 10.6123 13.3333 10.8333C13.3333 11.0543 13.2455 11.2663 13.0893 11.4226C12.933 11.5789 12.721 11.6667 12.5 11.6667H0.833333C0.61232 11.6667 0.400358 11.5789 0.244078 11.4226C0.0877975 11.2663 0 11.0543 0 10.8333ZM5.83333 5C5.61232 5 5.40036 5.0878 5.24408 5.24408C5.0878 5.40036 5 5.61232 5 5.83333C5 6.05435 5.0878 6.26631 5.24408 6.42259C5.40036 6.57887 5.61232 6.66667 5.83333 6.66667H12.5C12.721 6.66667 12.933 6.57887 13.0893 6.42259C13.2455 6.26631 13.3333 6.05435 13.3333 5.83333C13.3333 5.61232 13.2455 5.40036 13.0893 5.24408C12.933 5.0878 12.721 5 12.5 5H5.83333Z" fill="#4ECB71"/>
</svg>
