<svg width="21" height="20" viewBox="0 0 21 20" fill="none" xmlns="http://www.w3.org/2000/svg">
<path d="M4.15002 2C4.06714 2 3.98766 2.03292 3.92905 2.09153C3.87045 2.15013 3.83752 2.22962 3.83752 2.3125V14.25C3.83752 14.3625 3.89752 14.465 3.99377 14.5212L10.0675 18.0237C10.114 18.0506 10.1665 18.0651 10.2202 18.0657C10.2738 18.0664 10.3267 18.0532 10.3738 18.0275L16.8 14.5062C16.8493 14.4793 16.8905 14.4395 16.9191 14.3911C16.9477 14.3427 16.9627 14.2875 16.9625 14.2312V2.3125C16.9625 2.22962 16.9296 2.15013 16.871 2.09153C16.8124 2.03292 16.7329 2 16.65 2H4.15002ZM1.96252 2.3125C1.96252 1.105 2.94252 0.125 4.15002 0.125H16.65C17.8575 0.125 18.8375 1.105 18.8375 2.3125V14.2325C18.8374 14.6246 18.7318 15.0095 18.5319 15.3468C18.332 15.6842 18.0451 15.9616 17.7013 16.15L11.275 19.6725C10.9454 19.8529 10.5749 19.9454 10.1992 19.941C9.82355 19.9366 9.45531 19.8355 9.13002 19.6475L3.05752 16.145C2.72467 15.9531 2.44822 15.6769 2.25599 15.3443C2.06377 15.0116 1.96255 14.6342 1.96252 14.25V2.3125ZM6.65002 5.4375C6.65002 5.18886 6.7488 4.9504 6.92461 4.77459C7.10043 4.59877 7.33888 4.5 7.58752 4.5H13.3563C13.6049 4.5 13.8434 4.59877 14.0192 4.77459C14.195 4.9504 14.2938 5.18886 14.2938 5.4375V13.0575C14.2939 13.2316 14.2455 13.4022 14.1541 13.5504C14.0627 13.6985 13.9319 13.8183 13.7763 13.8962L10.8913 15.3387C10.7612 15.4037 10.6179 15.4375 10.4725 15.4375C10.3272 15.4375 10.1838 15.4037 10.0538 15.3387L7.16877 13.8962C7.01311 13.8185 6.88214 13.699 6.79053 13.5511C6.69891 13.4032 6.65026 13.2327 6.65002 13.0587V12.3363C6.65002 12.0876 6.7488 11.8492 6.92461 11.6733C7.10043 11.4975 7.33888 11.3988 7.58752 11.3988C7.83616 11.3988 8.07462 11.4975 8.25044 11.6733C8.42625 11.8492 8.52502 12.0876 8.52502 12.3363V12.4787L10.4725 13.4512L12.4188 12.4787V10.39H9.15002C8.90138 10.39 8.66293 10.2912 8.48711 10.1154C8.3113 9.9396 8.21252 9.70114 8.21252 9.4525C8.21252 9.20386 8.3113 8.9654 8.48711 8.78959C8.66293 8.61377 8.90138 8.515 9.15002 8.515H12.4188V6.375H7.58752C7.33888 6.375 7.10043 6.27623 6.92461 6.10041C6.7488 5.9246 6.65002 5.68614 6.65002 5.4375Z" fill="#699BF7"/>
</svg>
