<svg width="20" height="20" viewBox="0 0 20 20" fill="none" xmlns="http://www.w3.org/2000/svg">
<g clip-path="url(#clip0_108_24)">
<path fill-rule="evenodd" clip-rule="evenodd" d="M12.6434 0H9.16335V4.94333C8.66802 4.82383 8.15949 4.76783 7.65002 4.77667C4.01335 4.77583 1.66669 6.92083 1.66669 10.2275C1.66669 13.6592 3.87919 15.4467 8.12919 15.4508C9.54835 15.4508 10.8609 15.3258 12.6434 15.0092V0ZM8.11169 7.48083C8.54169 7.48083 8.87835 7.5225 9.28502 7.6475V12.8542C8.78835 12.9167 8.47502 12.9375 8.09002 12.9375C6.30669 12.9375 5.33585 11.9858 5.33585 10.2625C5.33585 8.49167 6.35252 7.48083 8.11169 7.48083Z" fill="#0A620D"/>
<path d="M18.3333 12.6942V5.17917H14.8583V11.575C14.8583 14.3975 14.7016 15.47 14.2041 16.3967C13.7291 17.3025 12.9858 17.8967 11.45 18.5683L14.6791 20C16.215 19.2817 16.9583 18.6308 17.5225 17.6C18.1275 16.5267 18.3333 15.2817 18.3333 12.6942ZM17.9875 0H14.5075V3.3275H17.9875V0Z" fill="#0A620D"/>
</g>
<defs>
<clipPath id="clip0_108_24">
<rect width="20" height="20" fill="white"/>
</clipPath>
</defs>
</svg>
