<svg width="20" height="20" viewBox="0 0 20 20" fill="none" xmlns="http://www.w3.org/2000/svg">
<path d="M1.25 1.25V18.75H18.75V1.25H1.25ZM10.7738 14.8981C10.7738 16.6012 9.77375 17.3787 8.31688 17.3787C7.00063 17.3787 6.23875 16.6994 5.84813 15.875L7.18813 15.0663C7.44625 15.5231 7.68062 15.91 8.24687 15.91C8.78562 15.91 9.12938 15.6987 9.12938 14.875V9.285H10.7738V14.8981ZM14.6637 17.3787C13.1362 17.3787 12.1481 16.6525 11.6675 15.6988L13.0075 14.9256C13.3594 15.5 13.82 15.9256 14.6288 15.9256C15.3081 15.9256 15.7463 15.5856 15.7463 15.1131C15.7463 14.5506 15.3006 14.3512 14.5469 14.0194L14.1369 13.8437C12.9494 13.34 12.1644 12.7031 12.1644 11.3631C12.1644 10.1287 13.1056 9.19125 14.5706 9.19125C15.6175 9.19125 16.3675 9.55438 16.9069 10.5075L15.6256 11.3281C15.3444 10.8244 15.0394 10.625 14.5669 10.625C14.0869 10.625 13.7819 10.93 13.7819 11.3281C13.7819 11.8206 14.0869 12.0194 14.7938 12.3281L15.2038 12.5038C16.6025 13.1013 17.3875 13.715 17.3875 15.0894C17.3875 16.5662 16.2231 17.3781 14.6644 17.3781L14.6637 17.3787Z" fill="#FFC700"/>
</svg>
