<svg width="20" height="20" viewBox="0 0 20 20" fill="none" xmlns="http://www.w3.org/2000/svg">
<path d="M14.8431 18.7531C14.7688 18.7925 14.775 18.805 14.8462 18.7688C14.8682 18.7598 14.8883 18.7469 14.9056 18.7306C14.9056 18.7175 14.9056 18.7175 14.8431 18.7531ZM14.9931 18.6719C14.9575 18.7013 14.9575 18.7013 15 18.6819C15.0157 18.6745 15.0301 18.6646 15.0425 18.6525C15.0425 18.6356 15.0325 18.6394 14.9931 18.6719ZM15.0906 18.6131C15.055 18.6425 15.055 18.6425 15.0975 18.6231C15.1133 18.6156 15.1276 18.6055 15.14 18.5931C15.14 18.5775 15.13 18.5806 15.0906 18.6131ZM15.1894 18.555C15.1537 18.5844 15.1538 18.5844 15.195 18.5644C15.2181 18.5519 15.2375 18.5388 15.2375 18.535C15.2375 18.5194 15.2275 18.5225 15.1894 18.555ZM15.3225 18.4669C15.2544 18.5125 15.2306 18.5419 15.2931 18.5094C15.335 18.4838 15.4062 18.4275 15.3937 18.4275C15.3669 18.4375 15.3444 18.4544 15.3219 18.4669H15.3225ZM9.34563 0.00688259C9.3 0.0100076 9.16312 0.0225076 9.04312 0.0325076C6.20063 0.290008 3.54125 1.82001 1.85563 4.17688C0.924103 5.46954 0.318599 6.96807 0.090625 8.54501C0.01 9.09501 0 9.25751 0 10.0031C0 10.7481 0.01 10.9081 0.090625 11.4581C0.635 15.215 3.3075 18.3688 6.93 19.5375C7.58188 19.7456 8.265 19.8894 9.04312 19.9775C9.34562 20.01 10.6538 20.01 10.9563 19.9775C12.3013 19.8275 13.4369 19.4956 14.5606 18.9225C14.7331 18.835 14.7656 18.8119 14.7425 18.7925C14.1943 18.0679 13.6508 17.3397 13.1119 16.6081L11.5138 14.45L9.51187 11.4844C8.84599 10.4914 8.17326 9.50307 7.49375 8.51938C7.48687 8.51938 7.47812 9.83751 7.47437 11.445C7.4675 14.2606 7.4675 14.375 7.43187 14.44C7.39771 14.5185 7.3365 14.5822 7.25937 14.6194C7.1975 14.6488 7.14188 14.655 6.84625 14.655H6.50813L6.42 14.6C6.36481 14.5646 6.31996 14.5152 6.29 14.4569L6.2475 14.3688L6.25063 10.4494L6.2575 6.53001L6.31938 6.45188C6.35889 6.40385 6.40754 6.36413 6.4625 6.33501C6.54438 6.29563 6.57688 6.28938 6.915 6.28938C7.31188 6.28938 7.3775 6.30501 7.48187 6.41938C8.29283 7.62555 9.0968 8.83641 9.89375 10.0519C11.1931 12.0219 12.9669 14.71 13.8388 16.0288L15.4244 18.4281L15.5025 18.3763C16.2645 17.8699 16.9551 17.2634 17.5556 16.5731C18.8153 15.1313 19.6328 13.3569 19.91 11.4625C19.9906 10.9125 20.0006 10.7494 20.0006 10.0044C20.0006 9.25876 19.9906 9.09938 19.91 8.54938C19.3656 4.79251 16.6931 1.63876 13.0706 0.469383C12.3936 0.254958 11.6968 0.109019 10.9906 0.0337576C10.8012 0.0143826 9.50875 -0.00874241 9.34625 0.00813259L9.34563 0.00688259ZM13.4375 6.05501C13.484 6.07784 13.5255 6.10973 13.5595 6.14879C13.5935 6.18786 13.6194 6.23332 13.6356 6.28251C13.6525 6.33501 13.6556 7.42188 13.6525 9.87001L13.6456 13.385L13.0275 12.435L12.4056 11.4844V8.93251C12.4056 7.27813 12.4125 6.35063 12.4213 6.30501C12.4518 6.20039 12.522 6.11183 12.6169 6.05813C12.6944 6.01876 12.7244 6.01563 13.0338 6.01563C13.3231 6.01563 13.3725 6.01876 13.4375 6.05501Z" fill="#F8F8F8"/>
</svg>
