<svg width="20" height="20" viewBox="0 0 20 20" fill="none" xmlns="http://www.w3.org/2000/svg">
<g clip-path="url(#clip0_111_35)">
<path d="M19.3218 11.9762C19.2056 11.624 18.9009 11.3787 18.507 11.3199C18.3212 11.2921 18.1085 11.3039 17.8568 11.3558C17.418 11.4464 17.0924 11.4808 16.8549 11.4875C17.7516 9.97349 18.4808 8.24698 18.9006 6.62175C19.5793 3.99379 19.2166 2.7966 18.7928 2.25508C17.671 0.82175 16.0344 0.0517494 14.06 0.0281888C13.0068 0.0153101 12.0821 0.223265 11.5998 0.37281C11.1507 0.293568 10.6678 0.249325 10.1612 0.241143C9.21139 0.225992 8.37222 0.433037 7.65518 0.858568C7.25821 0.724325 6.62109 0.535083 5.88533 0.414325C4.15487 0.130234 2.76018 0.351598 1.74002 1.07228C0.504721 1.94486 -0.0679301 3.46092 0.0379789 5.57834C0.0716153 6.25061 0.447676 8.29607 1.0398 10.2359C1.3801 11.3509 1.74298 12.2768 2.11836 12.9882C2.65071 13.9969 3.22033 14.5909 3.8598 14.8042C4.21821 14.9236 4.86942 15.0073 5.55434 14.4368C5.64116 14.542 5.75699 14.6464 5.91071 14.7435C6.10593 14.8666 6.34465 14.9672 6.58306 15.0268C7.44222 15.2416 8.24699 15.1879 8.93359 14.8868C8.93783 15.0089 8.94109 15.1256 8.94381 15.2264C8.94836 15.3898 8.9529 15.55 8.95889 15.6999C8.99957 16.713 9.06851 17.5008 9.27275 18.0521C9.28396 18.0824 9.29904 18.1286 9.31495 18.1776C9.41684 18.4896 9.58722 19.0118 10.0207 19.4208C10.4696 19.8446 11.0125 19.9745 11.5098 19.9745C11.7592 19.9745 11.9971 19.9417 12.2059 19.8971C12.9498 19.7376 13.7947 19.4947 14.4059 18.6244C14.9838 17.8017 15.2647 16.5625 15.3156 14.61C15.3221 14.5548 15.3282 14.5021 15.334 14.4518L15.3462 14.3486L15.4823 14.3606L15.5174 14.363C16.2751 14.3975 17.2016 14.2368 17.7706 13.9725C18.2203 13.7639 19.6611 13.0032 19.3218 11.9762Z" fill="black"/>
<path d="M18.0262 12.1759C15.7732 12.6407 15.6183 11.8779 15.6183 11.8779C17.9971 8.34811 18.9915 3.86758 18.1334 2.77099C15.7922 -0.220299 11.7396 1.1944 11.6719 1.23106L11.6502 1.235C11.205 1.14258 10.7069 1.08758 10.147 1.07841C9.12758 1.06175 8.35425 1.34569 7.76743 1.79069C7.76743 1.79069 0.537884 -1.18765 0.874171 5.53644C0.945687 6.9669 2.92447 16.3602 5.28463 13.523C6.14728 12.4855 6.98084 11.6083 6.98084 11.6083C7.39478 11.8833 7.89038 12.0236 8.40993 11.9732L8.45031 11.9389C8.43773 12.0677 8.44349 12.1937 8.46644 12.3429C7.85841 13.0222 8.03713 13.1414 6.82167 13.3917C5.59175 13.6452 6.31425 14.0964 6.78599 14.2144C7.35788 14.3574 8.68091 14.5599 9.57485 13.3085L9.53925 13.4513C9.77743 13.6421 9.9447 14.6924 9.91667 15.6446C9.88864 16.5967 9.86993 17.2505 10.0576 17.7611C10.2454 18.2717 10.4324 19.4205 12.0303 19.0782C13.3654 18.792 14.0573 18.0506 14.1536 16.8138C14.2218 15.9345 14.3764 16.0646 14.3861 15.2784L14.5102 14.9063C14.6531 13.7144 14.5329 13.3299 15.3554 13.5087L15.5554 13.5263C16.1607 13.5538 16.9531 13.4289 17.4182 13.2127C18.4196 12.748 19.0135 11.972 18.0261 12.1759H18.0262Z" fill="#336791"/>
<path d="M8.1906 6.17615C7.98757 6.14789 7.80371 6.17403 7.71068 6.24448C7.65841 6.2841 7.6422 6.33001 7.6378 6.3616C7.62613 6.44531 7.68477 6.53789 7.72083 6.58562C7.8228 6.72077 7.97174 6.81365 8.11917 6.8341C8.14053 6.83713 8.16182 6.8385 8.18295 6.8385C8.42879 6.8385 8.65235 6.64706 8.67204 6.50577C8.69667 6.3288 8.43977 6.21077 8.1906 6.17615ZM14.9167 6.18175C14.8973 6.04304 14.6505 6.0035 14.4162 6.03607C14.1823 6.06865 13.9555 6.17425 13.9744 6.31327C13.9895 6.42137 14.1848 6.60592 14.4158 6.60592C14.4354 6.60592 14.4551 6.60463 14.4749 6.60183C14.6292 6.58047 14.7423 6.48251 14.7961 6.42607C14.878 6.34001 14.9254 6.2441 14.9167 6.18175Z" fill="white"/>
<path d="M18.7759 12.1231C18.69 11.8633 18.4135 11.7798 17.9541 11.8746C16.5901 12.1561 16.1016 11.9611 15.9412 11.843C17.0015 10.2279 17.8737 8.27544 18.3442 6.45385C18.5671 5.59097 18.6902 4.78961 18.7002 4.13643C18.7114 3.41954 18.5893 2.89272 18.3374 2.5709C17.3221 1.27355 15.832 0.577642 14.0282 0.558551C12.7881 0.544611 11.7404 0.86196 11.5373 0.951202C11.1096 0.844839 10.6433 0.779536 10.1356 0.771202C9.20472 0.756126 8.40002 0.979005 7.73381 1.43332C7.44442 1.3256 6.69654 1.06885 5.78192 0.921505C4.2007 0.66696 2.94419 0.859839 2.04752 1.49507C0.977598 2.2531 0.483659 3.6081 0.57934 5.52234C0.611537 6.16635 0.978507 8.14757 1.5576 10.0449C2.31987 12.5422 3.14851 13.9559 4.02033 14.2467C4.12237 14.2807 4.24002 14.3045 4.3698 14.3045C4.68783 14.3045 5.07775 14.1612 5.48343 13.6735C5.97825 13.0799 6.4901 12.5007 7.01836 11.9367C7.36108 12.1206 7.7376 12.2233 8.12267 12.2336C8.12343 12.2437 8.12442 12.2538 8.12533 12.2638C8.05904 12.3428 7.99413 12.423 7.93063 12.5043C7.66381 12.843 7.60828 12.9136 6.74942 13.0904C6.5051 13.1408 5.85623 13.2745 5.84669 13.7294C5.83639 14.2264 6.61373 14.4351 6.7023 14.4572C7.01093 14.5345 7.30828 14.5726 7.59184 14.5726C8.28146 14.5726 8.88836 14.3459 9.37336 13.9073C9.35843 15.679 9.4323 17.4248 9.64502 17.9567C9.81927 18.3921 10.2449 19.4563 11.5893 19.4562C11.7865 19.4562 12.0037 19.4332 12.2425 19.382C13.6456 19.0813 14.2549 18.4611 14.4906 17.0939C14.6168 16.3632 14.8332 14.6185 14.935 13.6826C15.1499 13.7496 15.4265 13.7803 15.7255 13.7802C16.3491 13.7802 17.0687 13.6477 17.52 13.4382C18.027 13.2028 18.9418 12.6251 18.7759 12.1231ZM15.4346 5.79885C15.4299 6.07514 15.3919 6.32597 15.3516 6.58779C15.3082 6.86938 15.2634 7.16052 15.2521 7.51393C15.2409 7.85787 15.2839 8.21544 15.3254 8.56128C15.4093 9.25976 15.4955 9.97885 15.1621 10.6884C15.1067 10.5903 15.0574 10.4888 15.0143 10.3847C14.9729 10.2842 14.8829 10.1229 14.7583 9.89954C14.2735 9.03014 13.1383 6.99423 13.7194 6.16347C13.8925 5.9162 14.3318 5.66196 15.4346 5.79885ZM14.0979 1.11802C15.7141 1.1537 16.9926 1.75832 17.8978 2.91499C18.592 3.80219 17.8275 7.83908 15.6144 11.3217C15.5922 11.2934 15.5698 11.2652 15.5473 11.2371L15.5193 11.2021C16.0912 10.2576 15.9793 9.32317 15.8798 8.49469C15.8389 8.15469 15.8003 7.83355 15.8101 7.53188C15.8203 7.21219 15.8625 6.93794 15.9034 6.67279C15.9537 6.34605 16.0048 6.00794 15.9907 5.60938C16.0012 5.56757 16.0055 5.51817 15.9999 5.45954C15.964 5.07734 15.5276 3.93348 14.6382 2.89817C14.1517 2.33188 13.4422 1.69817 12.4735 1.27075C12.8902 1.18438 13.4599 1.10385 14.0979 1.11802ZM5.05411 13.3165C4.60714 13.8539 4.29851 13.7509 4.19699 13.7171C3.53563 13.4965 2.7682 12.0986 2.09161 9.88196C1.50616 7.96393 1.16404 6.03522 1.13692 5.49438C1.05146 3.78393 1.46608 2.59188 2.36934 1.95128C3.83934 0.908854 6.25616 1.53279 7.2273 1.84923C7.21336 1.86302 7.19881 1.8759 7.18502 1.88991C5.59139 3.49931 5.62919 6.24901 5.63313 6.41711C5.63298 6.48196 5.63843 6.57378 5.64586 6.70007C5.67328 7.16257 5.72434 8.02332 5.58798 8.9981C5.46131 9.90393 5.74055 10.7905 6.35396 11.4306C6.41692 11.4962 6.48308 11.5586 6.55222 11.6176C6.27919 11.91 5.68578 12.5567 5.05411 13.3165ZM6.75707 11.0443C6.26267 10.5284 6.03813 9.81082 6.14093 9.07537C6.28487 8.04567 6.23177 7.14885 6.2032 6.66704C6.19919 6.59961 6.19563 6.54052 6.19358 6.49393C6.42639 6.28749 7.50525 5.70946 8.27464 5.88575C8.6257 5.96613 8.83964 6.20522 8.92858 6.61643C9.38889 8.74544 8.98949 9.63279 8.66858 10.3459C8.60245 10.4928 8.53995 10.6317 8.48661 10.7753L8.44525 10.8864C8.34055 11.1671 8.24313 11.4282 8.18275 11.6761C7.65714 11.6745 7.14586 11.45 6.75707 11.0442M6.83775 13.9154C6.68427 13.8771 6.54623 13.8105 6.46525 13.7553C6.5329 13.7235 6.65328 13.6801 6.86207 13.6371C7.87245 13.4292 8.02851 13.2823 8.36926 12.8497C8.44737 12.7504 8.53593 12.638 8.65858 12.5011L8.65873 12.5009C8.84139 12.2964 8.92495 12.3311 9.07646 12.3939C9.19926 12.4447 9.31889 12.5986 9.36737 12.768C9.39033 12.848 9.41608 12.9998 9.33177 13.118C8.61995 14.1147 7.58267 14.1019 6.83775 13.9154ZM12.1256 18.8361C10.8895 19.1009 10.4518 18.4702 10.1634 17.7492C9.9773 17.2838 9.88578 15.1848 9.9507 12.8669C9.95154 12.8361 9.94714 12.8063 9.93866 12.7782C9.93107 12.7229 9.91952 12.6682 9.90411 12.6145C9.8076 12.2772 9.57237 11.9951 9.29017 11.8781C9.17805 11.8317 8.9723 11.7464 8.72502 11.8097C8.77775 11.5924 8.86919 11.347 8.96836 11.0814L9.00995 10.9696C9.05676 10.8436 9.11555 10.7131 9.17767 10.5749C9.51351 9.82885 9.97343 8.80696 9.47426 6.4984C9.2873 5.6337 8.6629 5.21143 7.71639 5.30954C7.14896 5.36825 6.6298 5.59719 6.37086 5.72847C6.31517 5.75666 6.26426 5.78393 6.21669 5.81044C6.28896 4.93923 6.56199 3.31105 7.58336 2.2809C8.22646 1.63241 9.0829 1.31211 10.1264 1.32938C12.1824 1.36302 13.5009 2.41817 14.245 3.29749C14.8862 4.05514 15.2334 4.8184 15.372 5.23007C14.3299 5.12408 13.6212 5.32976 13.262 5.8434C12.4804 6.96067 13.6896 9.12916 14.2707 10.1714C14.3773 10.3623 14.4693 10.5274 14.4982 10.5976C14.6874 11.0562 14.9324 11.3624 15.1113 11.5859C15.1662 11.6544 15.2193 11.7208 15.2598 11.7789C14.9442 11.8698 14.3773 12.0801 14.429 13.1309C14.3873 13.6582 14.091 16.1268 13.9405 16.999C13.7418 18.1513 13.3177 18.5804 12.1256 18.8361ZM17.2849 12.9319C16.9622 13.0817 16.4221 13.194 15.9091 13.2182C15.3424 13.2447 15.054 13.1547 14.9861 13.0993C14.9543 12.4445 15.198 12.3761 15.4559 12.3036C15.4965 12.2923 15.536 12.2811 15.5742 12.2678C15.5979 12.2871 15.6239 12.3063 15.6524 12.3251C16.1078 12.6257 16.9202 12.6581 18.0671 12.4214L18.0796 12.4189C17.9249 12.5635 17.6603 12.7576 17.2849 12.9319Z" fill="white"/>
</g>
<defs>
<clipPath id="clip0_111_35">
<rect width="19.4" height="20" fill="white"/>
</clipPath>
</defs>
</svg>
