<svg width="34" height="34" viewBox="0 0 34 34" fill="none" xmlns="http://www.w3.org/2000/svg">
<path d="M6.81818 27H3.40909C2.50494 27 1.63783 26.6444 0.9985 26.0115C0.359171 25.3786 0 24.5201 0 23.625L0 12.375C0 11.4799 0.359171 10.6214 0.9985 9.98851C1.63783 9.35558 2.50494 9 3.40909 9H18.1818V6.75H15.9091V4.5H13.6364V6.75H9.09091V3.375C9.09091 2.47989 9.45008 1.62145 10.0894 0.988515C10.7287 0.355579 11.5959 0 12.5 0L21.5909 0C22.4951 0 23.3622 0.355579 24.0015 0.988515C24.6408 1.62145 25 2.47989 25 3.375V14.625C25 14.9234 24.8803 15.2095 24.6672 15.4205C24.4541 15.6315 24.165 15.75 23.8636 15.75H10.2273C9.32313 15.75 8.45601 16.1056 7.81668 16.7385C7.17735 17.3714 6.81818 18.2299 6.81818 19.125V27Z" fill="#87B7FE"/>
<path d="M27.1818 7V14.875C27.1818 15.7701 26.8226 16.6286 26.1833 17.2615C25.544 17.8944 24.6769 18.25 23.7727 18.25H10.1364C9.83498 18.25 9.54594 18.3685 9.33283 18.5795C9.11972 18.7905 9 19.0766 9 19.375V30.625C9 31.5201 9.35917 32.3786 9.9985 33.0115C10.6378 33.6444 11.5049 34 12.4091 34H21.5C22.4041 34 23.2713 33.6444 23.9106 33.0115C24.5499 32.3786 24.9091 31.5201 24.9091 30.625V27.25H20.3636V29.5H18.0909V27.25H15.8182V25H30.5909C31.4951 25 32.3622 24.6444 33.0015 24.0115C33.6408 23.3786 34 22.5201 34 21.625V10.375C34 9.47989 33.6408 8.62145 33.0015 7.98851C32.3622 7.35558 31.4951 7 30.5909 7H27.1818Z" fill="#FFC700"/>
</svg>
