<svg width="49" height="49" viewBox="0 0 49 49" fill="none" xmlns="http://www.w3.org/2000/svg">
<path d="M22.6686 21.311C22.0441 21.6716 21.5405 22.2093 21.2216 22.8561C20.9026 23.5028 20.7826 24.2297 20.8768 24.9447C20.9709 25.6596 21.2749 26.3307 21.7504 26.8729C22.2258 27.4151 22.8514 27.8041 23.548 27.9908C24.2445 28.1775 24.9808 28.1535 25.6637 27.9218C26.3466 27.69 26.9455 27.261 27.3846 26.689C27.8237 26.1169 28.0833 25.4275 28.1306 24.7079C28.1779 23.9883 28.0107 23.2708 27.6503 22.6462C27.4109 22.2314 27.0921 21.8678 26.7122 21.5762C26.3323 21.2846 25.8986 21.0706 25.436 20.9466C24.9734 20.8227 24.4909 20.791 24.0161 20.8535C23.5412 20.916 23.0834 21.0715 22.6686 21.311ZM39.0121 25.2677C38.7726 24.9941 38.5201 24.7199 38.2547 24.4449C38.4398 24.2489 38.6195 24.0536 38.7937 23.859C42.0706 20.1758 43.4548 16.4804 42.1726 14.2611C40.9436 12.1316 37.2869 11.4967 32.7075 12.3868C32.257 12.4753 31.8085 12.5747 31.362 12.6849C31.2763 12.3909 31.1858 12.0983 31.0905 11.807C29.5368 7.12546 27.0276 4.08133 24.4632 4.08338C22.0051 4.08338 19.6286 6.93558 18.1116 11.3476C17.9619 11.7832 17.8237 12.2215 17.6971 12.6625C17.3991 12.589 17.0996 12.5209 16.7988 12.4583C11.9682 11.4681 8.07885 12.1214 6.79873 14.3448C5.57169 16.4742 6.85385 19.9594 9.91839 23.4751C10.2233 23.8222 10.5363 24.1625 10.8576 24.496C10.4778 24.8839 10.1205 25.2738 9.78569 25.6617C6.79465 29.1285 5.58598 32.5544 6.81098 34.6757C8.07681 36.8685 11.9111 37.5851 16.5804 36.6663C16.9587 36.5915 17.3351 36.5071 17.7094 36.4132C17.8455 36.8909 17.9959 37.3653 18.1606 37.8362C19.6714 42.1584 22.0336 44.9167 24.4836 44.9167C27.0153 44.9167 29.5511 41.9502 31.0884 37.4462C31.2109 37.091 31.3232 36.7215 31.4335 36.3417C31.9167 36.4615 32.4033 36.5676 32.8933 36.6602C37.3911 37.5116 40.9619 36.844 42.1849 34.7206C43.4487 32.5258 42.1441 28.8467 39.0121 25.2677ZM8.30956 15.2145C9.09765 13.8466 12.2765 13.3117 16.4476 14.1692C16.7144 14.2237 16.986 14.2849 17.2623 14.353C16.8545 16.1544 16.5667 17.981 16.4007 19.8205C14.8965 20.8783 13.4623 22.0322 12.1071 23.275C11.809 22.9661 11.5184 22.6496 11.2353 22.3257C8.60764 19.3163 7.57048 16.4987 8.30956 15.2145ZM16.2455 26.9092C15.2043 26.1191 14.2345 25.3106 13.3545 24.498C14.2324 23.6895 15.2022 22.8851 16.2435 22.097C16.2054 22.8987 16.187 23.7011 16.1884 24.5041C16.1884 25.3072 16.2074 26.1089 16.2455 26.9092ZM16.2455 34.9534C14.4758 35.3475 12.6487 35.4126 10.8555 35.1453C10.3639 35.1068 9.88542 34.968 9.44962 34.7373C9.01381 34.5065 8.62997 34.1889 8.32181 33.8039C7.5766 32.5177 8.54844 29.7655 11.1066 26.801C11.4279 26.4294 11.76 26.0674 12.103 25.7148C13.4588 26.9653 14.8959 28.1248 16.4048 29.1857C16.5725 31.0485 16.863 32.8982 17.2745 34.7227C16.9342 34.8084 16.5906 34.886 16.2435 34.9554M30.7393 18.5425C30.0547 18.111 29.3619 17.6938 28.6609 17.2909C27.9695 16.8935 27.2705 16.5103 26.5641 16.1415C27.7255 15.651 28.9104 15.2183 30.1146 14.845C30.3848 16.0662 30.5934 17.3003 30.7393 18.5425ZM19.7633 11.9132C21.0618 8.13608 22.9851 5.829 24.4673 5.829C26.0455 5.82696 28.0954 8.31575 29.4367 12.3562C29.5238 12.6203 29.6055 12.8857 29.6817 13.1525C27.9209 13.6982 26.198 14.3598 24.5245 15.1329C22.8565 14.3503 21.1376 13.6811 19.3795 13.13C19.4979 12.7217 19.6258 12.3161 19.7633 11.9132ZM18.9466 14.8205C20.1453 15.1978 21.3242 15.6352 22.4787 16.1312C21.0468 16.869 19.6531 17.6727 18.2974 18.5425C18.4607 17.2399 18.6792 15.9924 18.9466 14.8205ZM18.2994 30.4597C18.9759 30.8939 19.6626 31.311 20.3595 31.7112C21.07 32.1195 21.7893 32.5115 22.5175 32.8872C21.3546 33.4004 20.1662 33.8536 18.9569 34.2449C18.6759 32.9954 18.4565 31.7328 18.2994 30.4617M29.4388 36.8848C28.8956 38.6141 28.0388 40.2288 26.9112 41.648C26.6328 42.0548 26.2739 42.4003 25.8567 42.6629C25.4395 42.9256 24.9729 43.0999 24.4857 43.1752C22.9973 43.1752 21.1006 40.96 19.8103 37.2625C19.6578 36.8256 19.5176 36.3846 19.3897 35.9395C21.1561 35.3697 22.8819 34.6807 24.5551 33.8774C26.2429 34.6568 27.98 35.3245 29.7552 35.8762C29.6572 36.2151 29.5517 36.5513 29.4388 36.8848ZM30.1779 34.1816C28.958 33.8007 27.7574 33.3605 26.5804 32.8627C27.2732 32.4993 27.9708 32.1148 28.6731 31.7092C29.3945 31.2927 30.0969 30.866 30.7801 30.429C30.6437 31.6894 30.4427 32.9419 30.1779 34.1816ZM31.0905 24.498C31.0905 25.738 31.0517 26.9766 30.9741 28.2138C29.9676 28.8957 28.9059 29.5613 27.8014 30.1983C26.6989 30.8333 25.6106 31.4172 24.5408 31.946C23.4152 31.407 22.3113 30.8258 21.2292 30.2024C20.154 29.5831 19.1032 28.9237 18.0769 28.224C17.9816 26.9854 17.934 25.7455 17.934 24.5041C17.934 23.2642 17.9803 22.0249 18.0728 20.7862C20.1252 19.385 22.2805 18.1408 24.5204 17.0643C25.6311 17.6047 26.722 18.1838 27.7932 18.8017C28.8685 19.4197 29.9233 20.0723 30.9578 20.7597C31.0462 22.0038 31.0905 23.2499 31.0905 24.498ZM33.0423 14.0998C36.9664 13.3382 39.9227 13.8507 40.6639 15.1349C41.454 16.5028 40.3229 19.5204 37.4911 22.7013C37.3346 22.8769 37.1726 23.0532 37.0052 23.2301C35.626 21.9833 34.1635 20.8319 32.6279 19.7838C32.4732 17.9646 32.197 16.1577 31.801 14.3754C32.2229 14.272 32.6367 14.1801 33.0423 14.0998ZM32.7769 22.0317C33.8132 22.788 34.8095 23.5976 35.7618 24.4572C34.8139 25.3305 33.821 26.1538 32.7871 26.9235C32.8184 26.115 32.8341 25.3065 32.8341 24.498C32.8341 23.6759 32.815 22.8538 32.7769 22.0317ZM40.6761 33.8509C39.9329 35.1392 37.0664 35.6761 33.2179 34.9493C32.7769 34.8663 32.325 34.7669 31.8622 34.6512C32.2487 32.8458 32.5126 31.0164 32.6524 29.1755C34.1853 28.1097 35.6431 26.9398 37.0154 25.674C37.2563 25.9231 37.485 26.1708 37.7014 26.4172C38.9285 27.7515 39.8996 29.3004 40.5659 30.9864C40.7791 31.431 40.8989 31.9145 40.9179 32.4072C40.9368 32.8999 40.8546 33.3912 40.6761 33.8509Z" fill="#85B6FF"/>
</svg>
