<svg width="20" height="20" viewBox="0 0 20 20" fill="none" xmlns="http://www.w3.org/2000/svg">
<path d="M3.125 2.5C2.95924 2.5 2.80027 2.56585 2.68306 2.68306C2.56585 2.80027 2.5 2.95924 2.5 3.125C2.5 3.29076 2.56585 3.44973 2.68306 3.56694C2.80027 3.68415 2.95924 3.75 3.125 3.75H3.4325C3.56821 3.75023 3.70016 3.79464 3.80841 3.8765C3.91666 3.95836 3.99531 4.07323 4.0325 4.20375L6.015 11.1413C6.12713 11.5328 6.36368 11.8771 6.68888 12.1223C7.01408 12.3674 7.41025 12.5 7.8175 12.5H13.5287C13.9036 12.5001 14.2698 12.3878 14.5802 12.1777C14.8905 11.9676 15.1308 11.6693 15.27 11.3213L17.1125 6.71375C17.1882 6.52416 17.2164 6.3189 17.1945 6.11591C17.1726 5.91293 17.1013 5.7184 16.9869 5.54932C16.8724 5.38025 16.7183 5.24178 16.538 5.14602C16.3577 5.05026 16.1567 5.00013 15.9525 5H5.56L5.23375 3.86C5.12191 3.46847 4.88565 3.12398 4.56068 2.87862C4.23571 2.63326 3.83969 2.50036 3.4325 2.5H3.125ZM8.125 17.5C8.37123 17.5 8.61505 17.4515 8.84253 17.3573C9.07002 17.263 9.27672 17.1249 9.45083 16.9508C9.62494 16.7767 9.76305 16.57 9.85727 16.3425C9.9515 16.115 10 15.8712 10 15.625C10 15.3788 9.9515 15.135 9.85727 14.9075C9.76305 14.68 9.62494 14.4733 9.45083 14.2992C9.27672 14.1251 9.07002 13.987 8.84253 13.8927C8.61505 13.7985 8.37123 13.75 8.125 13.75C7.62772 13.75 7.15081 13.9475 6.79917 14.2992C6.44754 14.6508 6.25 15.1277 6.25 15.625C6.25 16.1223 6.44754 16.5992 6.79917 16.9508C7.15081 17.3025 7.62772 17.5 8.125 17.5ZM13.125 17.5C13.3712 17.5 13.615 17.4515 13.8425 17.3573C14.07 17.263 14.2767 17.1249 14.4508 16.9508C14.6249 16.7767 14.763 16.57 14.8573 16.3425C14.9515 16.115 15 15.8712 15 15.625C15 15.3788 14.9515 15.135 14.8573 14.9075C14.763 14.68 14.6249 14.4733 14.4508 14.2992C14.2767 14.1251 14.07 13.987 13.8425 13.8927C13.615 13.7985 13.3712 13.75 13.125 13.75C12.6277 13.75 12.1508 13.9475 11.7992 14.2992C11.4475 14.6508 11.25 15.1277 11.25 15.625C11.25 16.1223 11.4475 16.5992 11.7992 16.9508C12.1508 17.3025 12.6277 17.5 13.125 17.5Z" fill="#4ECB71"/>
</svg>
