<svg width="33" height="25" viewBox="0 0 33 25" fill="none" xmlns="http://www.w3.org/2000/svg">
<path d="M6.2501 0.199951C4.61902 0.199951 3.05474 0.847896 1.90139 2.00124C0.748042 3.15459 0.100098 4.71887 0.100098 6.34995V18.65C0.100098 20.281 0.748042 21.8453 1.90139 22.9987C3.05474 24.152 4.61902 24.7999 6.2501 24.7999H26.7501C28.3812 24.7999 29.9455 24.152 31.0988 22.9987C32.2522 21.8453 32.9001 20.281 32.9001 18.65V6.34995C32.9001 4.71887 32.2522 3.15459 31.0988 2.00124C29.9455 0.847896 28.3812 0.199951 26.7501 0.199951H6.2501ZM27.7751 4.29995C28.0469 4.29995 28.3077 4.40794 28.4999 4.60017C28.6921 4.79239 28.8001 5.0531 28.8001 5.32495V7.37495C28.8001 7.6468 28.6921 7.90751 28.4999 8.09974C28.3077 8.29196 28.0469 8.39995 27.7751 8.39995C27.5033 8.39995 27.2425 8.29196 27.0503 8.09974C26.8581 7.90751 26.7501 7.6468 26.7501 7.37495V5.32495C26.7501 5.0531 26.8581 4.79239 27.0503 4.60017C27.2425 4.40794 27.5033 4.29995 27.7751 4.29995ZM26.7501 17.625C26.7501 17.3531 26.8581 17.0924 27.0503 16.9002C27.2425 16.7079 27.5033 16.6 27.7751 16.6C28.0469 16.6 28.3077 16.7079 28.4999 16.9002C28.6921 17.0924 28.8001 17.3531 28.8001 17.625V19.675C28.8001 19.9468 28.6921 20.2075 28.4999 20.3997C28.3077 20.592 28.0469 20.7 27.7751 20.7C27.5033 20.7 27.2425 20.592 27.0503 20.3997C26.8581 20.2075 26.7501 19.9468 26.7501 19.675V17.625ZM27.7751 10.45C28.0469 10.45 28.3077 10.5579 28.4999 10.7502C28.6921 10.9424 28.8001 11.2031 28.8001 11.475V13.525C28.8001 13.7968 28.6921 14.0575 28.4999 14.2497C28.3077 14.442 28.0469 14.55 27.7751 14.55C27.5033 14.55 27.2425 14.442 27.0503 14.2497C26.8581 14.0575 26.7501 13.7968 26.7501 13.525V11.475C26.7501 11.2031 26.8581 10.9424 27.0503 10.7502C27.2425 10.5579 27.5033 10.45 27.7751 10.45ZM4.2001 5.32495C4.2001 5.0531 4.30809 4.79239 4.50031 4.60017C4.69254 4.40794 4.95325 4.29995 5.2251 4.29995C5.49694 4.29995 5.75766 4.40794 5.94988 4.60017C6.14211 4.79239 6.2501 5.0531 6.2501 5.32495V7.37495C6.2501 7.6468 6.14211 7.90751 5.94988 8.09974C5.75766 8.29196 5.49694 8.39995 5.2251 8.39995C4.95325 8.39995 4.69254 8.29196 4.50031 8.09974C4.30809 7.90751 4.2001 7.6468 4.2001 7.37495V5.32495ZM5.2251 16.6C5.49694 16.6 5.75766 16.7079 5.94988 16.9002C6.14211 17.0924 6.2501 17.3531 6.2501 17.625V19.675C6.2501 19.9468 6.14211 20.2075 5.94988 20.3997C5.75766 20.592 5.49694 20.7 5.2251 20.7C4.95325 20.7 4.69254 20.592 4.50031 20.3997C4.30809 20.2075 4.2001 19.9468 4.2001 19.675V17.625C4.2001 17.3531 4.30809 17.0924 4.50031 16.9002C4.69254 16.7079 4.95325 16.6 5.2251 16.6ZM4.2001 11.475C4.2001 11.2031 4.30809 10.9424 4.50031 10.7502C4.69254 10.5579 4.95325 10.45 5.2251 10.45C5.49694 10.45 5.75766 10.5579 5.94988 10.7502C6.14211 10.9424 6.2501 11.2031 6.2501 11.475V13.525C6.2501 13.7968 6.14211 14.0575 5.94988 14.2497C5.75766 14.442 5.49694 14.55 5.2251 14.55C4.95325 14.55 4.69254 14.442 4.50031 14.2497C4.30809 14.0575 4.2001 13.7968 4.2001 13.525V11.475ZM12.4001 8.65825C12.4001 7.6681 13.3431 7.0531 14.0975 7.55125L20.1245 11.5549C20.76 11.9772 20.76 13.0227 20.1245 13.445L14.0975 17.4487C13.3451 17.9468 12.4001 17.3318 12.4001 16.3417V8.65825Z" fill="#9747FF"/>
</svg>
