<svg width="20" height="20" viewBox="0 0 20 20" fill="none" xmlns="http://www.w3.org/2000/svg">
<g clip-path="url(#clip0_179_4)">
<path fill-rule="evenodd" clip-rule="evenodd" d="M16.2458 2.61082C16.4305 2.49974 16.651 2.46452 16.8611 2.51253C17.0711 2.56054 17.2544 2.68806 17.3725 2.86832L18.1975 4.12665C18.3051 4.29104 18.3511 4.48813 18.3274 4.68314C18.3038 4.87816 18.212 5.05855 18.0683 5.19249L18.0658 5.19582L18.0542 5.20665L18.0067 5.25082L17.8192 5.42999C16.7817 6.43632 15.7756 7.4746 14.8025 8.54332C12.9717 10.5567 10.7975 13.1917 9.33418 15.7483C8.92584 16.4617 7.92834 16.615 7.33668 15.9992L1.93251 10.3842C1.85506 10.3037 1.79459 10.2084 1.75469 10.1041C1.71479 9.99974 1.69627 9.88845 1.70023 9.77682C1.7042 9.66518 1.73056 9.55549 1.77777 9.45425C1.82497 9.353 1.89205 9.26229 1.97501 9.18749L3.60834 7.71415C3.75188 7.58475 3.93593 7.50925 4.12899 7.50058C4.32205 7.49192 4.51213 7.55062 4.66668 7.66665L7.42418 9.73415C11.7317 5.48665 14.1742 3.85665 16.2458 2.61082Z" fill="#85B6FF"/>
</g>
<defs>
<clipPath id="clip0_179_4">
<rect width="20" height="20" fill="white"/>
</clipPath>
</defs>
</svg>
