<svg width="20" height="24" viewBox="0 0 20 24" fill="none" xmlns="http://www.w3.org/2000/svg">
<path d="M14.8048 4.04761C15.0446 4.04811 15.2802 4.11849 15.4884 4.25181C15.9571 4.54915 16.2485 5.12634 16.2485 5.75293L16.2485 18.4335C16.2485 19.0619 15.9571 19.6373 15.4884 19.9346C15.2753 20.0717 15.0331 20.1423 14.7873 20.1388C14.5415 20.1353 14.3011 20.058 14.0911 19.915L4.40947 13.4277C4.2077 13.2861 4.04136 13.0895 3.92606 12.8562C3.81076 12.6229 3.75028 12.3607 3.75028 12.0941C3.75028 11.8275 3.81076 11.5653 3.92606 11.332C4.04136 11.0987 4.2077 10.9021 4.40947 10.7605L14.0927 4.27149C14.3076 4.12607 14.5537 4.04869 14.8048 4.04761Z" fill="#9747FF"/>
</svg>
