<svg width="71" height="71" viewBox="0 0 71 71" fill="none" xmlns="http://www.w3.org/2000/svg">
<path fill-rule="evenodd" clip-rule="evenodd" d="M47.3337 26.625C47.3337 29.7634 46.0869 32.7733 43.8678 34.9924C41.6486 37.2116 38.6387 38.4583 35.5003 38.4583C32.3619 38.4583 29.3521 37.2116 27.1329 34.9924C24.9137 32.7733 23.667 29.7634 23.667 26.625C23.667 23.4866 24.9137 20.4768 27.1329 18.2576C29.3521 16.0384 32.3619 14.7917 35.5003 14.7917C38.6387 14.7917 41.6486 16.0384 43.8678 18.2576C46.0869 20.4768 47.3337 23.4866 47.3337 26.625ZM41.417 26.625C41.417 28.1942 40.7936 29.6991 39.684 30.8087C38.5744 31.9183 37.0695 32.5417 35.5003 32.5417C33.9311 32.5417 32.4262 31.9183 31.3166 30.8087C30.207 29.6991 29.5837 28.1942 29.5837 26.625C29.5837 25.0558 30.207 23.5509 31.3166 22.4413C32.4262 21.3317 33.9311 20.7083 35.5003 20.7083C37.0695 20.7083 38.5744 21.3317 39.684 22.4413C40.7936 23.5509 41.417 25.0558 41.417 26.625Z" fill="#9747FF"/>
<path fill-rule="evenodd" clip-rule="evenodd" d="M35.5002 2.95834C17.5283 2.95834 2.9585 17.5281 2.9585 35.5C2.9585 53.4719 17.5283 68.0417 35.5002 68.0417C53.472 68.0417 68.0418 53.4719 68.0418 35.5C68.0418 17.5281 53.472 2.95834 35.5002 2.95834ZM8.87516 35.5C8.87516 41.6829 10.9845 47.3747 14.5197 51.8951C17.0024 48.6347 20.2053 45.9925 23.8782 44.1748C27.551 42.3571 31.5944 41.4131 35.6925 41.4167C39.7375 41.4128 43.73 42.3323 47.3658 44.1051C51.0017 45.8779 54.1849 48.4573 56.6729 51.6466C59.2362 48.2847 60.962 44.3608 61.7077 40.1996C62.4534 36.0383 62.1974 31.7593 60.961 27.7166C59.7246 23.6739 57.5433 19.9837 54.5976 16.9514C51.6519 13.919 48.0265 11.6318 44.0213 10.2788C40.0161 8.92576 35.7463 8.54595 31.5652 9.17076C27.384 9.79556 23.4118 11.407 19.9771 13.8718C16.5424 16.3366 13.744 19.5838 11.8135 23.3448C9.88291 27.1058 8.8757 31.2724 8.87516 35.5ZM35.5002 62.125C29.3881 62.1342 23.4605 60.0315 18.7205 56.1728C20.6284 53.4415 23.1679 51.2115 26.1228 49.6724C29.0778 48.1334 32.3607 47.331 35.6925 47.3333C38.9826 47.3307 42.2259 48.1131 45.153 49.6155C48.0801 51.1179 50.6065 53.2969 52.5224 55.9717C47.7456 59.9557 41.7203 62.1337 35.5002 62.125Z" fill="#9747FF"/>
</svg>
